<svg width="28" height="29" viewBox="0 0 28 29" fill="none" xmlns="http://www.w3.org/2000/svg">
<path d="M14 0.260559C15.8565 0.260559 17.637 0.998057 18.9497 2.31081C20.2625 3.62357 21 5.40404 21 7.26056C21 9.11707 20.2625 10.8976 18.9497 12.2103C17.637 13.5231 15.8565 14.2606 14 14.2606C12.1435 14.2606 10.363 13.5231 9.05025 12.2103C7.7375 10.8976 7 9.11707 7 7.26056C7 5.40404 7.7375 3.62357 9.05025 2.31081C10.363 0.998057 12.1435 0.260559 14 0.260559ZM14 17.7606C21.735 17.7606 28 20.8931 28 24.7606V28.2606H0V24.7606C0 20.8931 6.265 17.7606 14 17.7606Z" fill="#0086B0"/>
</svg>
