<svg width="20" height="20" viewBox="0 0 20 20" fill="none" xmlns="http://www.w3.org/2000/svg">
<path d="M15.9984 18.6668H1.3332V4.00165H10.1456L11.4788 2.66846H1.3332C0.979611 2.66846 0.640507 2.80892 0.390484 3.05894C0.140461 3.30896 0 3.64807 0 4.00165V18.6668C0 19.0204 0.140461 19.3595 0.390484 19.6095C0.640507 19.8596 0.979611 20 1.3332 20H15.9984C16.3519 20 16.691 19.8596 16.9411 19.6095C17.1911 19.3595 17.3316 19.0204 17.3316 18.6668V8.66784L15.9984 10.001V18.6668Z" fill="#757575"/>
<path d="M19.6847 2.56182L17.4383 0.31538C17.3386 0.21541 17.2202 0.136094 17.0898 0.0819756C16.9594 0.0278572 16.8196 0 16.6784 0C16.5372 0 16.3974 0.0278572 16.267 0.0819756C16.1366 0.136094 16.0182 0.21541 15.9185 0.31538L6.77941 9.50777L6.03948 12.7141C6.00796 12.8695 6.01127 13.03 6.04919 13.184C6.0871 13.338 6.15867 13.4817 6.25874 13.6047C6.35882 13.7277 6.48492 13.827 6.62796 13.8955C6.77101 13.964 6.92745 13.9999 7.08604 14.0006C7.16801 14.0097 7.25072 14.0097 7.33268 14.0006L10.5657 13.2874L19.6847 4.08166C19.7847 3.98196 19.864 3.86352 19.9182 3.73312C19.9723 3.60272 20.0001 3.46292 20.0001 3.32174C20.0001 3.18055 19.9723 3.04076 19.9182 2.91035C19.864 2.77995 19.7847 2.66151 19.6847 2.56182ZM9.87242 12.0542L7.43267 12.5941L7.99928 10.1744L14.8786 3.24841L16.7584 5.12822L9.87242 12.0542ZM17.5116 4.37496L15.6318 2.49516L16.6651 1.44193L18.5582 3.33507L17.5116 4.37496Z" fill="#757575"/>
</svg>
