<svg width="23" height="23" viewBox="0 0 23 23" fill="none" xmlns="http://www.w3.org/2000/svg">
<path d="M21.7306 23C22.4316 23 23 22.4317 23 21.7306V1.2694C23 0.568259 22.4316 0 21.7306 0H1.2694C0.568172 0 0 0.568259 0 1.2694V21.7306C0 22.4317 0.568172 23 1.2694 23H21.7306Z" fill="#395185"/>
<path d="M15.8696 23V14.0932H18.8593L19.3069 10.6221H15.8696V8.40584C15.8696 7.40085 16.1487 6.71597 17.5899 6.71597L19.428 6.71516V3.61062C19.11 3.56831 18.0189 3.47379 16.7496 3.47379C14.0994 3.47379 12.2851 5.09142 12.2851 8.06218V10.6221H9.28772V14.0932H12.2851V23H15.8696Z" fill="white"/>
</svg>
