<svg width="23" height="23" viewBox="0 0 23 23" fill="none" xmlns="http://www.w3.org/2000/svg">
<path d="M22.7763 9.24772H21.85V9.2H11.5V13.8H17.9992C17.0511 16.4778 14.5032 18.4 11.5 18.4C7.68948 18.4 4.6 15.3105 4.6 11.5C4.6 7.68948 7.68948 4.6 11.5 4.6C13.2589 4.6 14.8591 5.26355 16.0776 6.34742L19.3303 3.09465C17.2764 1.18047 14.5291 0 11.5 0C5.14912 0 0 5.14912 0 11.5C0 17.8509 5.14912 23 11.5 23C17.8509 23 23 17.8509 23 11.5C23 10.7289 22.9207 9.97625 22.7763 9.24772Z" fill="#FFC107"/>
<path d="M1.32593 6.14733L5.10425 8.91825C6.1266 6.3871 8.60255 4.6 11.5 4.6C13.2589 4.6 14.8591 5.26355 16.0776 6.34742L19.3303 3.09465C17.2764 1.18047 14.5291 0 11.5 0C7.08283 0 3.25218 2.49377 1.32593 6.14733Z" fill="#FF3D00"/>
<path d="M11.5 23C14.4704 23 17.1695 21.8632 19.2101 20.0146L15.6509 17.0028C14.4575 17.9103 12.9992 18.4012 11.5 18.4C8.50881 18.4 5.96903 16.4927 5.01223 13.8311L1.26208 16.7204C3.16533 20.4447 7.03049 23 11.5 23Z" fill="#4CAF50"/>
<path d="M22.7763 9.24773H21.85V9.2H11.5V13.8H17.9992C17.5457 15.0744 16.7287 16.1881 15.6492 17.0033L15.6509 17.0022L19.2102 20.014C18.9583 20.2429 23 17.25 23 11.5C23 10.7289 22.9206 9.97625 22.7763 9.24773Z" fill="#1976D2"/>
</svg>
