<svg width="32" height="32" viewBox="0 0 32 32" fill="none" xmlns="http://www.w3.org/2000/svg">
<path d="M30.9405 16.9908C30.8088 16.9916 30.6784 16.9663 30.5565 16.9166C30.4347 16.8668 30.3239 16.7935 30.2305 16.7008L15.9405 2.40079L1.65046 16.7008C1.45916 16.8646 1.21308 16.9502 0.961404 16.9405C0.709728 16.9308 0.470988 16.8265 0.292894 16.6484C0.114799 16.4703 0.0104669 16.2315 0.000745782 15.9798C-0.00897537 15.7282 0.0766307 15.4821 0.240457 15.2908L15.2405 0.290793C15.4278 0.104542 15.6813 0 15.9455 0C16.2096 0 16.4631 0.104542 16.6505 0.290793L31.6505 15.2908C31.7881 15.4312 31.8812 15.609 31.9183 15.802C31.9555 15.9951 31.9348 16.1948 31.8591 16.3762C31.7833 16.5576 31.6558 16.7126 31.4924 16.8219C31.329 16.9312 31.137 16.99 30.9405 16.9908Z" fill="#A8A8A8"/>
<path d="M15.9404 5.78079L3.94043 17.8208V29.9908C3.94043 30.5212 4.15114 31.0299 4.52622 31.405C4.90129 31.7801 5.41 31.9908 5.94043 31.9908H12.9404V21.9908H18.9404V31.9908H25.9404C26.4709 31.9908 26.9796 31.7801 27.3546 31.405C27.7297 31.0299 27.9404 30.5212 27.9404 29.9908V17.7508L15.9404 5.78079Z" fill="#A8A8A8"/>
</svg>
