<svg width="28" height="29" viewBox="0 0 28 29" fill="none" xmlns="http://www.w3.org/2000/svg">
<path d="M25.5498 22.1394L25.2854 21.9061C24.5352 21.2377 23.8785 20.4712 23.3332 19.6272C22.7376 18.4625 22.3806 17.1906 22.2832 15.8861V12.0439C22.2883 9.99492 21.5451 8.01459 20.1931 6.47498C18.8411 4.93537 16.9734 3.94245 14.941 3.68278V2.67945C14.941 2.40406 14.8316 2.13996 14.6368 1.94523C14.4421 1.75051 14.178 1.64111 13.9026 1.64111C13.6272 1.64111 13.3631 1.75051 13.1684 1.94523C12.9737 2.13996 12.8643 2.40406 12.8643 2.67945V3.69834C10.85 3.97672 9.00494 4.97565 7.6707 6.51009C6.33647 8.04452 5.60353 10.0105 5.60763 12.0439V15.8861C5.51021 17.1906 5.15323 18.4625 4.55763 19.6272C4.02165 20.4691 3.37556 21.2355 2.63651 21.9061L2.37207 22.1394V24.3328H25.5498V22.1394Z" fill="#A8A8A8"/>
<path d="M11.9155 25.1494C11.9837 25.6425 12.228 26.0941 12.6033 26.4211C12.9786 26.748 13.4595 26.9281 13.9572 26.9281C14.4549 26.9281 14.9358 26.748 15.3111 26.4211C15.6864 26.0941 15.9307 25.6425 15.9989 25.1494H11.9155Z" fill="#A8A8A8"/>
</svg>
