<svg width="24" height="26" viewBox="0 0 24 26" fill="none" xmlns="http://www.w3.org/2000/svg">
<path d="M23.5498 21.1394L23.2854 20.9061C22.5352 20.2377 21.8785 19.4712 21.3332 18.6272C20.7376 17.4625 20.3806 16.1906 20.2832 14.8861V11.0439C20.2883 8.99492 19.5451 7.01459 18.1931 5.47498C16.8411 3.93537 14.9734 2.94245 12.941 2.68278V1.67945C12.941 1.40406 12.8316 1.13996 12.6368 0.945234C12.4421 0.750509 12.178 0.641113 11.9026 0.641113C11.6272 0.641113 11.3631 0.750509 11.1684 0.945234C10.9737 1.13996 10.8643 1.40406 10.8643 1.67945V2.69834C8.85005 2.97672 7.00494 3.97565 5.6707 5.51009C4.33647 7.04452 3.60353 9.0105 3.60763 11.0439V14.8861C3.51021 16.1906 3.15323 17.4625 2.55763 18.6272C2.02165 19.4691 1.37556 20.2355 0.636515 20.9061L0.37207 21.1394V23.3328H23.5498V21.1394Z" fill="#0086B0"/>
<path d="M9.91553 24.1495C9.98373 24.6425 10.228 25.0942 10.6033 25.4211C10.9786 25.748 11.4595 25.9281 11.9572 25.9281C12.4549 25.9281 12.9358 25.748 13.3111 25.4211C13.6864 25.0942 13.9307 24.6425 13.9989 24.1495H9.91553Z" fill="#0086B0"/>
</svg>
