<svg width="18" height="18" viewBox="0 0 18 18" fill="none" xmlns="http://www.w3.org/2000/svg">
<path d="M7.69765 15.3945C9.40555 15.3941 11.0642 14.8224 12.4096 13.7703L16.6394 18L18 16.6395L13.7701 12.4098C14.8228 11.0644 15.3949 9.40546 15.3953 7.69721C15.3953 3.45314 11.9419 -3.05176e-05 7.69765 -3.05176e-05C3.45336 -3.05176e-05 0 3.45314 0 7.69721C0 11.9413 3.45336 15.3945 7.69765 15.3945ZM7.69765 1.92428C10.8816 1.92428 13.4709 4.51344 13.4709 7.69721C13.4709 10.881 10.8816 13.4701 7.69765 13.4701C4.51371 13.4701 1.92441 10.881 1.92441 7.69721C1.92441 4.51344 4.51371 1.92428 7.69765 1.92428Z" fill="#292929"/>
</svg>
