<svg width="20" height="20" viewBox="0 0 20 20" fill="none" xmlns="http://www.w3.org/2000/svg">
<path d="M19.7558 10.5937L15.3818 14.9687C15.2219 15.1217 15.0094 15.2074 14.7882 15.2083C14.623 15.2081 14.4616 15.1587 14.3245 15.0664C14.1875 14.9742 14.0809 14.8433 14.0184 14.6903C13.9559 14.5374 13.9403 14.3693 13.9735 14.2074C14.0067 14.0455 14.0873 13.8972 14.205 13.7812L17.1522 10.8333H7.49824C7.27728 10.8333 7.06537 10.7455 6.90912 10.5893C6.75288 10.433 6.6651 10.221 6.6651 10C6.6651 9.77899 6.75288 9.56702 6.90912 9.41074C7.06537 9.25446 7.27728 9.16667 7.49824 9.16667H17.1522L14.205 6.21875C14.0476 6.06266 13.9586 5.85041 13.9576 5.62868C13.9566 5.40696 14.0437 5.19393 14.1998 5.03646C14.3559 4.87899 14.5681 4.78997 14.7897 4.78899C15.0114 4.78802 15.2244 4.87516 15.3818 5.03125L19.7558 9.40625C19.9122 9.56424 20 9.77763 20 10C20 10.2224 19.9122 10.4358 19.7558 10.5937ZM7.49824 18.3333H1.66628V1.66667H7.49824C7.7192 1.66667 7.93112 1.57887 8.08736 1.42259C8.2436 1.26631 8.33138 1.05435 8.33138 0.833333C8.33138 0.61232 8.2436 0.400358 8.08736 0.244078C7.93112 0.0877975 7.7192 0 7.49824 0H1.66628C1.22435 0 0.800528 0.175595 0.488041 0.488155C0.175554 0.800716 0 1.22464 0 1.66667V18.3333C0 18.7754 0.175554 19.1993 0.488041 19.5118C0.800528 19.8244 1.22435 20 1.66628 20H7.49824C7.7192 20 7.93112 19.9122 8.08736 19.7559C8.2436 19.5996 8.33138 19.3877 8.33138 19.1667C8.33138 18.9457 8.2436 18.7337 8.08736 18.5774C7.93112 18.4211 7.7192 18.3333 7.49824 18.3333Z" fill="#F42A2A"/>
</svg>
