<svg width="30" height="24" viewBox="0 0 30 24" fill="none" xmlns="http://www.w3.org/2000/svg">
<path d="M30 2.8281C28.8766 3.31576 27.685 3.63587 26.4649 3.77776C27.7358 3.03135 28.7116 1.84938 29.1711 0.441072C27.963 1.1436 26.6412 1.63858 25.2628 1.90461C24.14 0.732517 22.5405 0 20.7702 0C17.3711 0 14.6152 2.7004 14.6152 6.03101C14.6152 6.50377 14.6696 6.96402 14.7745 7.40555C9.6593 7.15395 5.12414 4.75292 2.0884 1.104C1.55871 1.99476 1.2552 3.03089 1.2552 4.13604C1.2552 6.22852 2.34188 8.07445 3.99328 9.15606C3.01588 9.12606 2.05998 8.86738 1.20539 8.40161C1.20504 8.42687 1.20504 8.45214 1.20504 8.47751C1.20504 11.3997 3.3266 13.8373 6.14215 14.3914C5.2358 14.6329 4.28511 14.6683 3.3627 14.4947C4.14586 16.8908 6.41895 18.6345 9.11215 18.6833C7.0057 20.3008 4.35176 21.265 1.46824 21.265C0.971367 21.265 0.481523 21.2364 0 21.1807C2.72379 22.892 5.95898 23.8904 9.43477 23.8904C20.7559 23.8904 26.9466 14.7003 26.9466 6.73045C26.9466 6.46886 26.9407 6.20877 26.9288 5.95016C28.1337 5.0966 29.1737 4.03937 30 2.8281Z" fill="#55ACEE"/>
</svg>
