<svg width="28" height="30" viewBox="0 0 28 30" fill="none" xmlns="http://www.w3.org/2000/svg">
<path d="M27.5364 4.95259L24.0231 1.43932C23.7211 1.1514 23.3199 0.990784 22.9027 0.990784C22.4854 0.990784 22.0842 1.1514 21.7822 1.43932L18.6583 4.57277H1.89906C1.3954 4.57277 0.912365 4.77285 0.556222 5.129C0.200079 5.48514 0 5.96817 0 6.47184V27.3615C0 27.8652 0.200079 28.3482 0.556222 28.7043C0.912365 29.0605 1.3954 29.2606 1.89906 29.2606H22.7887C23.2924 29.2606 23.7754 29.0605 24.1316 28.7043C24.4877 28.3482 24.6878 27.8652 24.6878 27.3615V10.0421L27.5364 7.19348C27.8333 6.89617 28 6.49319 28 6.07303C28 5.65288 27.8333 5.2499 27.5364 4.95259ZM14.0815 17.9896L10.103 18.8727L11.0525 14.9321L20.1205 5.84515L23.1875 8.91213L14.0815 17.9896ZM24.213 7.82966L21.146 4.76268L22.9027 3.00605L25.9697 6.07303L24.213 7.82966Z" fill="#0086B0"/>
</svg>
